<?xml version="1.0" encoding="utf-8"?>
<!-- Generator: Adobe Illustrator 16.0.0, SVG Export Plug-In . SVG Version: 6.00 Build 0)  -->
<!DOCTYPE svg PUBLIC "-//W3C//DTD SVG 1.1//EN" "http://www.w3.org/Graphics/SVG/1.1/DTD/svg11.dtd">
<svg version="1.1" id="Layer_1" xmlns="http://www.w3.org/2000/svg" xmlns:xlink="http://www.w3.org/1999/xlink" x="0px" y="0px"
	 width="16.035px" height="8.178px" viewBox="0 0 16.035 8.178" enable-background="new 0 0 16.035 8.178" xml:space="preserve">
<g>
	<polygon points="0.151,8.027 0.151,8.178 16.035,8.178 16.035,0 0,0 0,8.178 0.151,8.178 0.151,8.027 0.302,8.027 0.302,0.302 
		15.733,0.302 15.733,7.876 0.151,7.876 0.151,8.027 0.302,8.027 	"/>
	<path d="M14.094,3.763c0,0.165-0.012,0.215-0.146,0.215h-0.056c-0.139,0-0.15-0.05-0.15-0.215v-0.43h-0.443v0.493
		c0,0.463,0.11,0.598,0.535,0.598h0.202c0.421,0,0.535-0.135,0.535-0.598V3.599c0-0.408-0.118-0.551-0.438-0.833
		c-0.287-0.248-0.362-0.329-0.362-0.577V2.087c0-0.156,0.013-0.206,0.151-0.206h0.05c0.135,0,0.152,0.05,0.152,0.214v0.346h0.446
		V2.033c0-0.463-0.109-0.598-0.535-0.598h-0.202c-0.425,0-0.535,0.134-0.535,0.598v0.16c0,0.409,0.114,0.556,0.435,0.833
		c0.286,0.245,0.361,0.329,0.361,0.578V3.763z M12.314,4.403h0.544V1.456h-0.409V2.74c0,0.198,0.013,0.383,0.018,0.573
		c-0.026-0.189-0.056-0.375-0.094-0.568l-0.257-1.288h-0.602v2.947h0.413V2.967c0-0.198-0.013-0.366-0.021-0.555
		c0.029,0.189,0.055,0.357,0.096,0.555L12.314,4.403z M10.259,3.477c0.063-0.657,0.109-1.196,0.139-1.651
		c0.025,0.455,0.076,0.994,0.139,1.651l0.009,0.088h-0.294L10.259,3.477z M10.655,4.403h0.475l-0.378-2.947h-0.653L9.716,4.403
		h0.425l0.051-0.417H10.6L10.655,4.403z M8.516,4.403h0.939V3.957H8.992v-2.5H8.516V4.403z M7.636,1.902h0.51V1.456H7.161v2.947
		h0.476V3.131h0.413V2.685H7.636V1.902z M6.281,1.902H6.79V1.456H5.805v2.947h0.476V3.131h0.413V2.685H6.281V1.902z M4.862,3.763
		c0,0.165-0.013,0.215-0.151,0.215H4.643c-0.139,0-0.152-0.05-0.152-0.215V2.096c0-0.164,0.013-0.214,0.152-0.214H4.71
		c0.139,0,0.151,0.05,0.151,0.214V3.763z M4.016,3.826c0,0.463,0.109,0.598,0.539,0.598h0.245c0.425,0,0.539-0.135,0.539-0.598
		V2.033c0-0.463-0.114-0.598-0.539-0.598H4.554c-0.429,0-0.539,0.134-0.539,0.598V3.826z M2.525,3.275
		c0.025-0.24,0.038-0.522,0.046-0.779C2.58,2.753,2.592,3.035,2.618,3.275l0.11,1.128h0.577l0.354-2.947H3.232L3.094,2.728
		C3.056,3.064,3.026,3.38,3.018,3.641C3.009,3.38,2.984,3.064,2.95,2.728L2.816,1.456H2.353L2.218,2.728
		C2.184,3.064,2.159,3.38,2.146,3.641C2.138,3.38,2.104,3.064,2.07,2.728L1.936,1.456H1.46l0.354,2.947h0.602L2.525,3.275z"/>
	<path d="M14.346,6.73h0.229V5.013h-0.229V6.73z M13.794,5.609c0,0.115-0.01,0.152-0.116,0.152h-0.172V5.215h0.172
		c0.109,0,0.116,0.036,0.116,0.152V5.609z M14.024,6.164c0-0.182-0.034-0.268-0.146-0.302c0.111-0.032,0.146-0.118,0.146-0.297
		V5.332c0-0.248-0.062-0.319-0.304-0.319h-0.442V6.73h0.229V5.963h0.153c0.114,0,0.135,0.054,0.135,0.172v0.328
		c0,0.108,0.003,0.212,0.029,0.268h0.239c-0.029-0.085-0.039-0.191-0.039-0.302V6.164z M12.654,5.215h0.34V5.013h-0.568V6.73h0.568
		v-0.2h-0.34V5.934h0.284V5.731h-0.284V5.215z M11.747,5.979h0.144v0.41c0,0.115-0.011,0.152-0.117,0.152h-0.055
		c-0.106,0-0.117-0.037-0.117-0.152V5.354c0-0.115,0.011-0.151,0.117-0.151h0.055c0.106,0,0.117,0.036,0.117,0.151v0.258h0.216V5.32
		c0-0.248-0.062-0.319-0.305-0.319h-0.124c-0.24,0-0.305,0.071-0.305,0.319v1.104c0,0.248,0.065,0.318,0.305,0.318h0.124
		c0.242,0,0.305-0.07,0.305-0.318V5.778h-0.359V5.979z M10.629,6.059c0.046-0.344,0.07-0.636,0.088-0.866
		c0.019,0.23,0.044,0.522,0.092,0.866l0.028,0.208h-0.237L10.629,6.059z M10.905,6.73h0.229l-0.244-1.718h-0.314L10.328,6.73h0.206
		l0.038-0.263h0.294L10.905,6.73z M9.871,5.575c0,0.115-0.011,0.151-0.117,0.151H9.582V5.215h0.171c0.11,0,0.117,0.036,0.117,0.152
		V5.575z M9.753,5.929c0.106,0,0.117,0.036,0.117,0.152v0.297c0,0.114-0.007,0.152-0.117,0.152H9.582V5.929H9.753z M9.353,6.73
		h0.442c0.242,0,0.304-0.071,0.304-0.318V6.125c0-0.18-0.033-0.263-0.146-0.297c0.112-0.032,0.146-0.118,0.146-0.3V5.332
		c0-0.248-0.062-0.319-0.304-0.319H9.353V6.73z M8.826,6.39c0,0.115-0.011,0.152-0.117,0.152H8.67c-0.109,0-0.117-0.037-0.117-0.152
		V6.107H8.339v0.316c0,0.248,0.062,0.318,0.301,0.318h0.11c0.239,0,0.303-0.07,0.303-0.318V6.267c0-0.226-0.056-0.3-0.267-0.479
		C8.604,5.634,8.566,5.585,8.566,5.43V5.35c0-0.111,0.01-0.147,0.117-0.147h0.039c0.109,0,0.117,0.036,0.117,0.151v0.234h0.215V5.32
		c0-0.248-0.062-0.319-0.303-0.319H8.644c-0.242,0-0.304,0.071-0.304,0.319v0.112c0,0.226,0.055,0.302,0.265,0.481
		C8.787,6.068,8.826,6.115,8.826,6.27V6.39z M7.778,6.73h0.26V5.013h-0.2v0.916c0,0.11,0.008,0.211,0.01,0.312
		c-0.016-0.101-0.034-0.201-0.06-0.31L7.573,5.013H7.284V6.73h0.197V5.742c0-0.113-0.002-0.214-0.004-0.314
		c0.015,0.101,0.03,0.201,0.057,0.31L7.778,6.73z M6.608,5.979h0.143v0.41c0,0.115-0.01,0.152-0.117,0.152H6.58
		c-0.106,0-0.117-0.037-0.117-0.152V5.354c0-0.115,0.01-0.151,0.117-0.151h0.055c0.106,0,0.117,0.036,0.117,0.151v0.258h0.215V5.32
		c0-0.248-0.062-0.319-0.303-0.319H6.539c-0.239,0-0.304,0.071-0.304,0.319v1.104c0,0.248,0.065,0.318,0.304,0.318h0.125
		c0.241,0,0.303-0.07,0.303-0.318V5.778H6.608V5.979z M5.418,5.013H5.189v1.411c0,0.248,0.062,0.318,0.304,0.318h0.125
		c0.241,0,0.301-0.07,0.301-0.318V5.013H5.707V6.39c0,0.115-0.01,0.152-0.117,0.152H5.535c-0.109,0-0.117-0.037-0.117-0.152V5.013z
		 M4.602,6.73h0.26V5.013h-0.2v0.916c0,0.11,0.008,0.211,0.01,0.312c-0.016-0.101-0.034-0.201-0.06-0.31L4.397,5.013H4.108V6.73
		h0.197V5.742c0-0.113-0.002-0.214-0.005-0.314c0.016,0.101,0.032,0.201,0.058,0.31L4.602,6.73z M3.482,5.215h0.341V5.013H3.253
		V6.73h0.569v-0.2H3.482V5.934h0.283V5.731H3.482V5.215z M2.812,6.73V5.215h0.198V5.013H2.383v0.202h0.2V6.73H2.812z M1.946,6.39
		c0,0.115-0.011,0.152-0.117,0.152H1.79c-0.109,0-0.117-0.037-0.117-0.152V6.107H1.46v0.316c0,0.248,0.062,0.318,0.302,0.318h0.109
		c0.239,0,0.304-0.07,0.304-0.318V6.267c0-0.226-0.058-0.3-0.268-0.479C1.725,5.634,1.686,5.585,1.686,5.43V5.35
		c0-0.111,0.01-0.147,0.117-0.147h0.039c0.109,0,0.117,0.036,0.117,0.151v0.234h0.216V5.32c0-0.248-0.062-0.319-0.304-0.319H1.764
		c-0.242,0-0.304,0.071-0.304,0.319v0.112c0,0.226,0.055,0.302,0.265,0.481C1.907,6.068,1.946,6.115,1.946,6.27V6.39z"/>
</g>
</svg>
